# File created by Blade
# Date/Time:  Thu Jan 22 19:01:23 2015
#---------------------------------------------------------
:version 1.10
:name HOM
:units
  mass 1.0
  length 1.000000
  angle deg
:documentation
     Acclaim Skeleton File
:root
   axis xyz
   order TX TY TZ RX RY RZ
   position 0.000000 0.000000 0.000000
   orientation 0 0 0
:bonedata
   begin
      id 1
      name RightUpLeg_dum
      direction -1.000000 0.000000 0.000000
      length 4.478084
      axis 0.0 0.0 0.0 xyz
   end
   begin
      id 2
      name LeftUpLeg_dum
      direction 1.000000 0.000000 0.000000
      length 4.478084
      axis 0.0 0.0 0.0 xyz
   end
   begin
      id 3
      name Spine_dum
      direction 0.000000 1.000000 0.000000
      length 6.068208
      axis 0.0 0.0 0.0 xyz
   end
   begin
      id 4
      name RightUpLeg
      direction 0.000000 -1.000000 0.000000
      length 16.405774
      axis 0.0 0.0 0.0 xyz
      dof rx ry rz
   end
   begin
      id 5
      name RightLeg
      direction 0.000000 -1.000000 0.000000
      length 14.644143
      axis 0.0 0.0 0.0 xyz
      dof rx ry rz
   end
   begin
      id 6
      name RightFoot
      direction 0.000000 -0.258819 0.965926
      length 5.806150
      axis 15.0 0.0 0.0 xyz
      dof rx ry rz
   end
   begin
      id 7
      name RightToeBase
      direction 0.000000 0.000000 1.000000
      length 2.952750
      axis 0.0 0.0 0.0 xyz
      dof rx ry rz
   end
   begin
      id 8
      name LeftUpLeg
      direction 0.000000 -1.000000 0.000000
      length 16.405774
      axis 0.0 0.0 0.0 xyz
      dof rx ry rz
   end
   begin
      id 9
      name LeftLeg
      direction 0.000000 -1.000000 0.000000
      length 14.644143
      axis 0.0 0.0 0.0 xyz
      dof rx ry rz
   end
   begin
      id 10
      name LeftFoot
      direction 0.000000 -0.258819 0.965926
      length 5.806150
      axis 15.0 0.0 0.0 xyz
      dof rx ry rz
   end
   begin
      id 11
      name LeftToeBase
      direction 0.000000 0.000000 1.000000
      length 2.952750
      axis 0.0 0.0 0.0 xyz
      dof rx ry rz
   end
   begin
      id 12
      name Spine
      direction 0.000000 1.000000 0.000000
      length 0.000000
      axis 0.0 0.0 0.0 xyz
      dof rx ry rz
   end
   begin
      id 13
      name Spine_dum1
      direction 0.000000 1.000000 0.000000
      length 10.013923
      axis 0.0 0.0 0.0 xyz
   end
   begin
      id 14
      name Spine_dum2
      direction 0.000000 1.000000 0.000000
      length 10.013923
      axis 0.0 0.0 0.0 xyz
   end
   begin
      id 15
      name Spine_dum3
      direction 0.000000 1.000000 0.000000
      length 15.777476
      axis 0.0 0.0 0.0 xyz
   end
   begin
      id 16
      name RightShoulder
      direction -1.000000 0.000000 0.000000
      length 7.190220
      axis 0.0 0.0 90.0 xyz
      dof rx ry rz
   end
   begin
      id 17
      name RightArm
      direction -1.000000 0.000000 0.000000
      length 10.177469
      axis 0.0 0.0 90.0 xyz
      dof rx ry rz
   end
   begin
      id 18
      name RightForeArm
      direction -1.000000 0.000000 0.000000
      length 8.392114
      axis 0.0 0.0 90.0 xyz
      dof ry rz rx
   end
   begin
      id 19
      name RightHand
      direction -1.000000 0.000000 0.000000
      length 0.000000
      axis 0.0 0.0 90.0 xyz
      dof rx ry rz
   end
   begin
      id 20
      name RightHand_dum1
      direction -1.000000 0.000000 0.000000
      length 3.937000
      axis 0.0 0.0 90.0 xyz
   end
   begin
      id 21
      name RightHand_dum2
      direction 0.000000 0.000000 0.000000
      length 0.000000
      axis 0.0 0.0 90.0 xyz
   end
   begin
      id 22
      name RightHandThumb1
      direction 0.000000 0.000000 1.000000
      length 3.937000
      axis 0.0 0.0 90.0 xyz
      dof rx rz ry
   end
   begin
      id 23
      name LeftShoulder
      direction 1.000000 0.000000 0.000000
      length 7.190220
      axis 0.0 0.0 -90.0 xyz
      dof rx ry rz
   end
   begin
      id 24
      name LeftArm
      direction 1.000000 0.000000 0.000000
      length 10.177469
      axis 0.0 0.0 -90.0 xyz
      dof rx ry rz
   end
   begin
      id 25
      name LeftForeArm
      direction 1.000000 0.000000 0.000000
      length 8.392114
      axis 0.0 0.0 -90.0 xyz
      dof ry rz rx
   end
   begin
      id 26
      name LeftHand
      direction 1.000000 0.000000 0.000000
      length 0.000000
      axis 0.0 0.0 -90.0 xyz
      dof rx ry rz
   end
   begin
      id 27
      name LeftHand_dum1
      direction 1.000000 0.000000 0.000000
      length 3.937000
      axis 0.0 0.0 -90.0 xyz
   end
   begin
      id 28
      name LeftHand_dum2
      direction 0.000000 0.000000 0.000000
      length 0.000000
      axis 0.0 0.0 -90.0 xyz
   end
   begin
      id 29
      name LeftHandThumb1
      direction 0.000000 0.000000 1.000000
      length 3.937000
      axis 0.0 0.0 -90.0 xyz
      dof rx rz ry
   end
   begin
      id 30
      name Head
      direction 0.000000 1.000000 0.000000
      length 4.527550
      axis 0.0 0.0 0.0 xyz
      dof rx ry rz
   end
:hierarchy
   begin
      root RightUpLeg_dum LeftUpLeg_dum Spine_dum
      RightUpLeg_dum RightUpLeg
      LeftUpLeg_dum LeftUpLeg
      Spine_dum Spine
      RightUpLeg RightLeg
      RightLeg RightFoot
      RightFoot RightToeBase
      LeftUpLeg LeftLeg
      LeftLeg LeftFoot
      LeftFoot LeftToeBase
      Spine Spine_dum1 Spine_dum2 Spine_dum3
      Spine_dum1 RightShoulder
      Spine_dum2 LeftShoulder
      Spine_dum3 Head
      RightShoulder RightArm
      RightArm RightForeArm
      RightForeArm RightHand
      RightHand RightHand_dum1 RightHand_dum2
      RightHand_dum2 RightHandThumb1
      LeftShoulder LeftArm
      LeftArm LeftForeArm
      LeftForeArm LeftHand
      LeftHand LeftHand_dum1 LeftHand_dum2
      LeftHand_dum2 LeftHandThumb1
   end

# File created by Blade
# Date/Time:  Thu Jan 22 19:01:15 2015
# Frame Rate: 120.000 fps
#------------------------------------------------------
:FULLY-SPECIFIED
:DEGREES
296
root -2.845945 33.203086 -0.862859 8.245155 -2.386321 2.613800
RightUpLeg -3.394797 -6.848732 -1.835518
RightLeg 1.207732 -0.000000 -0.000000
RightFoot -11.347886 -2.695980 3.762452
RightToeBase 5.764881 -0.000000 -0.000000
LeftUpLeg -3.231901 4.801366 0.810714
LeftLeg 2.590992 -0.000000 -0.000000
LeftFoot -10.631041 1.578659 -10.205483
LeftToeBase 7.341481 -0.000000 -0.000000
Spine -5.318010 -0.841425 -2.008933
RightShoulder -17.374932 -27.695470 -18.636702
RightArm 29.383429 -35.451272 29.370268
RightForeArm -4.200186 -0.000000 27.230640
RightHand 9.612891 -0.000000 17.252659
RightHandThumb1 -24.326973 -0.000000 -32.862282
LeftShoulder -23.769670 15.737050 22.714138
LeftArm 9.276300 34.649814 -46.632167
LeftForeArm 23.884375 0.000000 22.938672
LeftHand -0.568307 0.000000 -15.599730
LeftHandThumb1 -26.253704 0.000000 33.147579
Head -7.627172 2.919206 -0.829981
297
root -2.842048 33.203734 -0.871994 8.270720 -2.436364 2.609875
RightUpLeg -3.469450 -6.784472 -1.842117
RightLeg 1.256350 -0.000000 -0.000000
RightFoot -11.349806 -2.696901 3.783789
RightToeBase 5.729483 -0.000000 -0.000000
LeftUpLeg -3.269757 4.832743 0.797644
LeftLeg 2.597964 -0.000000 -0.000000
LeftFoot -10.621750 1.585908 -10.237931
LeftToeBase 7.254956 -0.000000 -0.000000
Spine -5.217342 -0.742022 -2.014392
RightShoulder -17.344335 -27.859128 -18.448868
RightArm 30.134873 -37.146483 28.970839
RightForeArm -3.916689 0.000000 28.078561
RightHand 9.732872 0.000000 17.297681
RightHandThumb1 -24.326973 -0.000000 -32.862282
LeftShoulder -23.633000 15.688026 22.633207
LeftArm 8.794230 36.386659 -47.623339
LeftForeArm 23.327164 -0.000000 23.942759
LeftHand -0.454888 0.000000 -15.795897
LeftHandThumb1 -26.253704 0.000000 33.147579
Head -7.872193 2.899091 -0.844199
298
root -2.841827 33.204703 -0.879926 8.316004 -2.434623 2.607874
RightUpLeg -3.542235 -6.792729 -1.830112
RightLeg 1.269346 -0.000000 -0.000000
RightFoot -11.351980 -2.651665 3.838806
RightToeBase 5.547426 -0.000000 -0.000000
LeftUpLeg -3.340083 4.827902 0.795691
LeftLeg 2.621225 -0.000000 -0.000000
LeftFoot -10.632833 1.600239 -10.196188
LeftToeBase 7.337525 -0.000000 -0.000000
Spine -5.140955 -0.701253 -2.019828
RightShoulder -17.308371 -28.004517 -18.264312
RightArm 30.863853 -38.765758 28.645663
RightForeArm -3.552980 0.000000 28.889328
RightHand 9.910285 -0.000000 17.338240
RightHandThumb1 -24.326973 -0.000000 -32.862282
LeftShoulder -23.518307 15.704601 22.492321
LeftArm 8.365557 37.969336 -48.584951
LeftForeArm 22.605090 -0.000000 24.923909
LeftHand -0.245514 -0.000000 -16.281020
LeftHandThumb1 -26.253704 0.000000 33.147579
Head -8.125206 2.898758 -0.863149
299
root -2.840876 33.205303 -0.886262 8.335297 -2.434157 2.610455
RightUpLeg -3.583451 -6.774821 -1.831552
RightLeg 1.302097 -0.000000 -0.000000
RightFoot -11.349456 -2.721069 3.755557
RightToeBase 5.775251 -0.000000 -0.000000
LeftUpLeg -3.379903 4.828492 0.790354
LeftLeg 2.639235 -0.000000 -0.000000
LeftFoot -10.630226 1.597137 -10.200994
LeftToeBase 7.355974 -0.000000 -0.000000
Spine -5.051032 -0.703023 -2.029992
RightShoulder -17.209784 -28.114736 -18.089470
RightArm 31.578421 -40.339107 28.331772
RightForeArm -3.014171 -0.000000 29.670244
RightHand 10.140608 0.000000 17.568170
RightHandThumb1 -24.326973 -0.000000 -32.862282
LeftShoulder -23.428606 15.756721 22.364242
LeftArm 7.889624 39.527809 -49.644740
LeftForeArm 21.954439 0.000000 25.900185
LeftHand 0.000990 -0.000000 -16.499850
LeftHandThumb1 -26.253704 0.000000 33.147579
Head -8.333354 2.957464 -0.871384
300
root -2.843454 33.205955 -0.890881 8.378680 -2.369079 2.613563
RightUpLeg -3.617945 -6.862460 -1.811130
RightLeg 1.285999 -0.000000 -0.000000
RightFoot -11.339185 -2.722896 3.718758
RightToeBase 5.766766 -0.000000 -0.000000
LeftUpLeg -3.453884 4.783460 0.797649
LeftLeg 2.665319 -0.000000 -0.000000
LeftFoot -10.616683 1.570932 -10.202355
LeftToeBase 7.307251 -0.000000 -0.000000
Spine -4.999708 -0.750930 -2.042466
RightShoulder -17.137536 -28.261908 -17.887759
RightArm 32.254133 -41.791977 28.090211
RightForeArm -2.441972 -0.000000 30.519126
RightHand 10.165775 -0.000000 17.733576
RightHandThumb1 -24.326973 -0.000000 -32.862282
LeftShoulder -23.321057 15.785390 22.213747
LeftArm 7.358934 41.093537 -50.678360
LeftForeArm 21.123052 -0.000000 26.969865
LeftHand 0.014481 -0.000000 -16.688748
LeftHandThumb1 -26.253704 0.000000 33.147579
Head -8.529502 2.975070 -0.862011
301
root -2.841889 33.206709 -0.895289 8.430996 -2.391410 2.618271
RightUpLeg -3.691075 -6.850577 -1.814382
RightLeg 1.298923 -0.000000 -0.000000
RightFoot -11.315208 -2.685042 3.754353
RightToeBase 5.682106 -0.000000 -0.000000
LeftUpLeg -3.509292 4.804478 0.791377
LeftLeg 2.674468 -0.000000 -0.000000
LeftFoot -10.590057 1.516809 -10.189562
LeftToeBase 7.230893 -0.000000 -0.000000
Spine -4.961471 -0.718373 -2.054897
RightShoulder -17.055228 -28.398555 -17.683237
RightArm 32.853773 -43.143063 27.915090
RightForeArm -1.872428 -0.000000 31.404733
RightHand 10.294874 -0.000000 17.890221
RightHandThumb1 -24.326973 -0.000000 -32.862282
LeftShoulder -23.261581 15.871528 22.030808
LeftArm 6.888473 42.670460 -51.688114
LeftForeArm 20.290869 -0.000000 28.100532
LeftHand 0.125064 -0.000000 -16.985459
LeftHandThumb1 -26.253704 0.000000 33.147579
Head -8.740740 2.988824 -0.868850
302
root -2.839741 33.206876 -0.898775 8.468987 -2.438229 2.611857
RightUpLeg -3.755428 -6.819760 -1.808685
RightLeg 1.315034 -0.000000 -0.000000
RightFoot -11.330210 -2.628941 3.833586
RightToeBase 5.800915 -0.000000 -0.000000
LeftUpLeg -3.538949 4.860095 0.776017
LeftLeg 2.647851 -0.000000 -0.000000
LeftFoot -10.608258 1.561005 -10.201875
LeftToeBase 7.347343 -0.000000 -0.000000
Spine -4.912120 -0.671623 -2.052675
RightShoulder -16.998291 -28.614552 -17.435661
RightArm 33.506162 -44.375831 27.680641
RightForeArm -1.437893 -0.000000 32.384850
RightHand 10.226388 -0.000000 18.003822
RightHandThumb1 -24.326973 -0.000000 -32.862282
LeftShoulder -23.228558 15.961715 21.823320
LeftArm 6.361789 44.131607 -52.759933
LeftForeArm 19.625544 -0.000000 29.288526
LeftHand 0.052918 -0.000000 -17.194493
LeftHandThumb1 -26.253704 0.000000 33.147579
Head -8.937080 3.011080 -0.891677
303
root -2.838762 33.207409 -0.903124 8.528700 -2.451202 2.611271
RightUpLeg -3.831144 -6.823531 -1.801411
RightLeg 1.324569 -0.000000 -0.000000
RightFoot -11.331193 -2.665149 3.787915
RightToeBase 5.568074 -0.000000 -0.000000
LeftUpLeg -3.608900 4.878613 0.768070
LeftLeg 2.658387 -0.000000 -0.000000
LeftFoot -10.605813 1.551037 -10.189782
LeftToeBase 7.329911 -0.000000 -0.000000
Spine -4.887389 -0.671581 -2.047577
RightShoulder -16.976607 -28.837869 -17.147597
RightArm 34.159144 -45.524387 27.432394
RightForeArm -1.054285 -0.000000 33.431333
RightHand 10.170851 0.000000 17.836558
RightHandThumb1 -24.326973 -0.000000 -32.862282
LeftShoulder -23.230217 16.165305 21.537598
LeftArm 5.908520 45.401745 -53.792068
LeftForeArm 19.095181 -0.000000 30.507457
LeftHand 0.010664 -0.000000 -17.474160
LeftHandThumb1 -26.253704 0.000000 33.147579
Head -9.141427 3.029203 -0.924346
304
root -2.837817 33.207362 -0.903554 8.576307 -2.461187 2.611045
RightUpLeg -3.876801 -6.835910 -1.796208
RightLeg 1.313297 -0.000000 -0.000000
RightFoot -11.314839 -2.627935 3.801314
RightToeBase 5.522998 -0.000000 -0.000000
LeftUpLeg -3.649183 4.887312 0.761720
LeftLeg 2.645387 -0.000000 -0.000000
LeftFoot -10.603845 1.552245 -10.215837
LeftToeBase 7.369255 -0.000000 -0.000000
Spine -4.861118 -0.670303 -2.037597
RightShoulder -16.948460 -29.013276 -16.902124
RightArm 34.736999 -46.641627 27.328445
RightForeArm -0.790785 0.000000 34.430746
RightHand 10.216735 -0.000000 18.099143
RightHandThumb1 -24.326973 -0.000000 -32.862282
LeftShoulder -23.247339 16.262251 21.300987
LeftArm 5.298778 46.713624 -54.951040
LeftForeArm 18.695029 -0.000000 31.736813
LeftHand -0.066243 -0.000000 -17.670176
LeftHandThumb1 -26.253704 0.000000 33.147579
Head -9.347047 3.077011 -0.980319
305
root -2.835901 33.207265 -0.903804 8.630657 -2.481161 2.610606
RightUpLeg -3.933541 -6.831586 -1.795221
RightLeg 1.318580 -0.000000 -0.000000
RightFoot -11.306292 -2.663740 3.715310
RightToeBase 5.755017 -0.000000 -0.000000
LeftUpLeg -3.693968 4.920439 0.749718
LeftLeg 2.631492 -0.000000 -0.000000
LeftFoot -10.601393 1.542939 -10.216098
LeftToeBase 7.326421 -0.000000 -0.000000
Spine -4.850487 -0.639961 -2.037087
RightShoulder -16.933747 -29.178693 -16.634093
RightArm 35.233811 -47.689906 27.318608
RightForeArm -0.703574 -0.000000 35.425700
RightHand 10.238968 -0.000000 18.163242
RightHandThumb1 -24.326973 -0.000000 -32.862282
LeftShoulder -23.256910 16.351796 21.098278
LeftArm 4.665982 47.957595 -56.217865
LeftForeArm 18.303804 -0.000000 32.829006
LeftHand 0.003203 -0.000000 -17.946293
LeftHandThumb1 -26.253704 0.000000 33.147579
Head -9.523146 3.104837 -1.019514
306
root -2.832983 33.206920 -0.900191 8.673808 -2.495838 2.614783
RightUpLeg -3.960916 -6.853761 -1.799899
RightLeg 1.284544 -0.000000 -0.000000
RightFoot -11.301447 -2.569052 3.796740
RightToeBase 5.813180 -0.000000 -0.000000
LeftUpLeg -3.715836 4.912915 0.737064
LeftLeg 2.606795 -0.000000 -0.000000
LeftFoot -10.594232 1.556620 -10.214646
LeftToeBase 7.321168 -0.000000 -0.000000
Spine -4.849851 -0.622470 -2.032668
RightShoulder -16.950642 -29.359420 -16.381316
RightArm 35.814996 -48.774524 27.247730
RightForeArm -0.453212 -0.000000 36.410981
RightHand 10.222157 0.000000 18.020110
RightHandThumb1 -24.326973 -0.000000 -32.862282
LeftShoulder -23.260801 16.463318 20.889114
LeftArm 3.971989 49.110875 -57.572653
LeftForeArm 17.916216 -0.000000 33.846933
LeftHand 0.121897 -0.000000 -18.191257
LeftHandThumb1 -26.253704 0.000000 33.147579
Head -9.653815 3.124711 -1.079920
307
root -2.830093 33.207011 -0.901012 8.732782 -2.520436 2.622040
RightUpLeg -4.026770 -6.851195 -1.807711
RightLeg 1.283925 -0.000000 -0.000000
RightFoot -11.301838 -2.578107 3.751621
RightToeBase 5.564752 -0.000000 -0.000000
LeftUpLeg -3.770825 4.911674 0.717315
LeftLeg 2.602867 -0.000000 -0.000000
LeftFoot -10.593106 1.577277 -10.247929
LeftToeBase 7.273076 -0.000000 -0.000000
Spine -4.849297 -0.587405 -2.038309
RightShoulder -16.965463 -29.536557 -16.110544
RightArm 36.348306 -49.796470 27.244490
RightForeArm -0.097149 0.000000 37.332266
RightHand 10.291343 -0.000000 18.219913
RightHandThumb1 -24.326973 -0.000000 -32.862282
LeftShoulder -23.223700 16.500493 20.710339
LeftArm 3.083485 50.234557 -59.110071
LeftForeArm 17.473015 -0.000000 34.798846
LeftHand 0.152385 -0.000000 -18.237289
LeftHandThumb1 -26.253704 0.000000 33.147579
Head -9.819679 3.135848 -1.130745
